# ProBuilder 6.0.9
# https://unity3d.com/unity/features/worldbuilding/probuilder
# 3/31/2026 11:34:13 PM

mtllib ./FINAL_CUBE.mtl
o FINAL CUBE

g LEFT UP GREEN
v -1.73379 0.01713997 0
v -1.73379 1.01714 0
v -0.73379 1.01714 0
v -0.73379 0.01713997 0
v -1.73379 1.01714 -1
v -0.73379 1.01714 -1
v -1.73379 0.01713997 -1
v -0.73379 0.01713997 -1

vt 0 0
vt 0 1
vt 1 1
vt 1 0

vn 0 0 1
vn 0 1 0
vn 0 0 -1
vn 0 -1 0
vn 1 0 0
vn -1 0 0

usemtl Black
f 4/4/1 3/3/1 2/2/1 1/1/1
f 3/4/2 6/3/2 5/2/2 2/1/2
f 6/4/3 8/3/3 7/2/3 5/1/3
f 8/4/4 4/3/4 1/2/4 7/1/4
f 8/4/5 6/3/5 3/2/5 4/1/5
f 1/4/6 2/3/6 5/2/6 7/1/6

g down left green
v -1.73379 -0.98286 0
v -1.73379 0.01713997 0
v -0.73379 0.01713997 0
v -0.73379 -0.98286 0
v -1.73379 0.01713997 -1
v -0.73379 0.01713997 -1
v -1.73379 -0.98286 -1
v -0.73379 -0.98286 -1

vt 0 0
vt 0 1
vt 1 1
vt 1 0

vn 0 0 1
vn 0 1 0
vn 0 0 -1
vn 0 -1 0
vn 1 0 0
vn -1 0 0

usemtl Black
f 12/8/7 11/7/7 10/6/7 9/5/7
f 11/8/8 14/7/8 13/6/8 10/5/8
f 14/8/9 16/7/9 15/6/9 13/5/9
f 16/8/10 12/7/10 9/6/10 15/5/10
f 16/8/11 14/7/11 11/6/11 12/5/11
f 9/8/12 10/7/12 13/6/12 15/5/12

g left up red
v -1.73379 0.01713997 -1
v -1.73379 1.01714 -1
v -0.73379 1.01714 -1
v -0.73379 0.01713997 -1
v -1.73379 1.01714 -2
v -0.73379 1.01714 -2
v -1.73379 0.01713997 -2
v -0.73379 0.01713997 -2

vt 0 0
vt 0 1
vt 1 1
vt 1 0

vn 0 0 1
vn 0 1 0
vn 0 0 -1
vn 0 -1 0
vn 1 0 0
vn -1 0 0

usemtl Black
f 20/12/13 19/11/13 18/10/13 17/9/13
f 19/12/14 22/11/14 21/10/14 18/9/14
f 22/12/15 24/11/15 23/10/15 21/9/15
f 24/12/16 20/11/16 17/10/16 23/9/16
f 24/12/17 22/11/17 19/10/17 20/9/17
f 17/12/18 18/11/18 21/10/18 23/9/18

g lrft down red
v -1.73379 -0.98286 -1
v -1.73379 0.01713997 -1
v -0.73379 0.01713997 -1
v -0.73379 -0.98286 -1
v -1.73379 0.01713997 -2
v -0.73379 0.01713997 -2
v -1.73379 -0.98286 -2
v -0.73379 -0.98286 -2

vt 0 0
vt 0 1
vt 1 1
vt 1 0

vn 0 0 1
vn 0 1 0
vn 0 0 -1
vn 0 -1 0
vn 1 0 0
vn -1 0 0

usemtl Black
f 28/16/19 27/15/19 26/14/19 25/13/19
f 27/16/20 30/15/20 29/14/20 26/13/20
f 30/16/21 32/15/21 31/14/21 29/13/21
f 32/16/22 28/15/22 25/14/22 31/13/22
f 32/16/23 30/15/23 27/14/23 28/13/23
f 25/16/24 26/15/24 29/14/24 31/13/24

g left up white
v -0.73379 0.01713997 0
v -0.73379 1.01714 0
v 0.26621 1.01714 0
v 0.26621 0.01713997 0
v -0.73379 1.01714 -1
v 0.26621 1.01714 -1
v -0.73379 0.01713997 -1
v 0.26621 0.01713997 -1

vt 0 0
vt 0 1
vt 1 1
vt 1 0

vn 0 0 1
vn 0 1 0
vn 0 0 -1
vn 0 -1 0
vn 1 0 0
vn -1 0 0

usemtl Black
f 36/20/25 35/19/25 34/18/25 33/17/25
f 35/20/26 38/19/26 37/18/26 34/17/26
f 38/20/27 40/19/27 39/18/27 37/17/27
f 40/20/28 36/19/28 33/18/28 39/17/28
f 40/20/29 38/19/29 35/18/29 36/17/29
f 33/20/30 34/19/30 37/18/30 39/17/30

g down left  white
v -0.73379 -0.98286 0
v -0.73379 0.01713997 0
v 0.26621 0.01713997 0
v 0.26621 -0.98286 0
v -0.73379 0.01713997 -1
v 0.26621 0.01713997 -1
v -0.73379 -0.98286 -1
v 0.26621 -0.98286 -1

vt 0 0
vt 0 1
vt 1 1
vt 1 0

vn 0 0 1
vn 0 1 0
vn 0 0 -1
vn 0 -1 0
vn 1 0 0
vn -1 0 0

usemtl Black
f 44/24/31 43/23/31 42/22/31 41/21/31
f 43/24/32 46/23/32 45/22/32 42/21/32
f 46/24/33 48/23/33 47/22/33 45/21/33
f 48/24/34 44/23/34 41/22/34 47/21/34
f 48/24/35 46/23/35 43/22/35 44/21/35
f 41/24/36 42/23/36 45/22/36 47/21/36

g left up blue
v -0.73379 0.01713997 -1
v -0.73379 1.01714 -1
v 0.26621 1.01714 -1
v 0.26621 0.01713997 -1
v -0.73379 1.01714 -2
v 0.26621 1.01714 -2
v -0.73379 0.01713997 -2
v 0.26621 0.01713997 -2

vt 0 0
vt 0 1
vt 1 1
vt 1 0

vn 0 0 1
vn 0 1 0
vn 0 0 -1
vn 0 -1 0
vn 1 0 0
vn -1 0 0

usemtl Black
f 52/28/37 51/27/37 50/26/37 49/25/37
f 51/28/38 54/27/38 53/26/38 50/25/38
f 54/28/39 56/27/39 55/26/39 53/25/39
f 56/28/40 52/27/40 49/26/40 55/25/40
f 56/28/41 54/27/41 51/26/41 52/25/41
f 49/28/42 50/27/42 53/26/42 55/25/42

g down left blue
v -0.73379 -0.98286 -1
v -0.73379 0.01713997 -1
v 0.26621 0.01713997 -1
v 0.26621 -0.98286 -1
v -0.73379 0.01713997 -2
v 0.26621 0.01713997 -2
v -0.73379 -0.98286 -2
v 0.26621 -0.98286 -2

vt 0 0
vt 0 1
vt 1 1
vt 1 0

vn 0 0 1
vn 0 1 0
vn 0 0 -1
vn 0 -1 0
vn 1 0 0
vn -1 0 0

usemtl Black
f 60/32/43 59/31/43 58/30/43 57/29/43
f 59/32/44 62/31/44 61/30/44 58/29/44
f 62/32/45 64/31/45 63/30/45 61/29/45
f 64/32/46 60/31/46 57/30/46 63/29/46
f 64/32/47 62/31/47 59/30/47 60/29/47
f 57/32/48 58/31/48 61/30/48 63/29/48

